<svg xmlns="http://www.w3.org/2000/svg" xml:space="preserve" width="150" height="40" viewBox="0 0 1133.853 340.157"><defs><clipPath clipPathUnits="userSpaceOnUse" id="inline-svg-19-1"><path d="M0 255.118h850.39V0H0Z"></path></clipPath></defs><g clip-path="url(#inline-svg-19-1)" transform="matrix(1.33333 0 0 -1.33333 0 340.157)"><path d="M790.398 255.118H60.027c-2.31 0-4.59 0-6.892-.013-1.927-.012-3.84-.049-5.785-.079-4.19-.105-8.433-.363-12.617-1.113-4.214-.738-8.131-1.999-11.967-3.947a40.543 40.543 0 0 1-10.191-7.42 39.434 39.434 0 0 1-7.418-10.207c-1.958-3.83-3.2-7.766-3.935-11.983-.76-4.169-1.02-8.386-1.128-12.604-.058-1.93-.065-3.867-.095-5.798V53.145c.03-1.955.037-3.848.095-5.804.108-4.217.369-8.435 1.128-12.604.735-4.217 1.977-8.17 3.935-11.989 1.909-3.75 4.406-7.206 7.418-10.163a39.512 39.512 0 0 1 10.19-7.42c3.837-1.968 7.754-3.21 11.968-3.972C38.917.443 43.16.196 47.35.08c1.945-.043 3.858-.067 5.785-.067C55.438 0 57.718 0 60.027 0h730.37c2.263 0 4.562 0 6.824.013 1.92 0 3.886.024 5.805.067 4.217.116 8.447.362 12.591 1.113 4.217.762 8.14 2.004 12.013 3.971a39.517 39.517 0 0 1 10.182 7.421c3 2.957 5.496 6.413 7.44 10.163 1.93 3.818 3.185 7.772 3.898 11.99.775 4.168 1.02 8.386 1.169 12.603.024 1.956.024 3.85.024 5.804.049 2.287.049 4.562.049 6.886v135.05c0 2.305 0 4.592-.05 6.873 0 1.931 0 3.867-.024 5.798-.149 4.218-.394 8.435-1.169 12.604-.713 4.217-1.967 8.152-3.898 11.983-1.943 3.768-4.439 7.224-7.439 10.206a40.55 40.55 0 0 1-10.182 7.421c-3.873 1.948-7.796 3.21-12.013 3.947-4.144.75-8.374 1.008-12.59 1.113-1.92.03-3.887.067-5.806.08-2.261.012-4.56.012-6.823.012" fill="#c0c1c1"></path><path d="M53.165 5.509c-1.918 0-3.79.024-5.693.067-3.52.099-7.695.295-11.768 1.027-3.843.695-7.258 1.827-10.431 3.45a34.027 34.027 0 0 0-8.795 6.4 33.499 33.499 0 0 0-6.424 8.792c-1.633 3.178-2.749 6.59-3.419 10.433-.768 4.236-.965 8.534-1.048 11.805-.04 1.328-.092 5.749-.092 5.749v148.722s.055 4.353.092 5.632c.083 3.298.28 7.593 1.042 11.786.673 3.865 1.789 7.274 3.422 10.465a33.846 33.846 0 0 0 6.391 8.8 35.02 35.02 0 0 0 8.828 6.438c3.234 1.642 6.644 2.764 10.41 3.425 4.239.759 8.536.949 11.807 1.032l5.681.077h744.023l5.748-.08c3.229-.08 7.526-.27 11.701-1.023 3.793-.664 7.224-1.792 10.519-3.45a34.731 34.731 0 0 0 8.762-6.394c2.576-2.557 4.733-5.527 6.443-8.841 1.623-3.218 2.73-6.627 3.369-10.381.732-3.972.959-8.051 1.094-11.882.019-1.782.019-3.698.019-5.604.049-2.361.049-4.608.049-6.874V60.03c0-2.286 0-4.517-.049-6.767 0-2.048 0-3.923-.025-5.854-.129-3.708-.356-7.784-1.076-11.67-.651-3.86-1.758-7.272-3.399-10.513-1.698-3.271-3.856-6.228-6.395-8.724a34.062 34.062 0 0 0-8.809-6.437c-3.266-1.66-6.598-2.76-10.502-3.462-4.034-.732-8.208-.928-11.768-1.027a245.487 245.487 0 0 0-5.65-.067l-6.825-.013z"></path><path d="M289.6 92.718h22.031l-7.889 21.117c-1.084 2.917-2.15 6.138-3.205 9.665a289.044 289.044 0 0 0-3.102-9.565zm25.794-10.023h-29.51l-7.224-19.743h-12.975l28.9 73.728h12.263l29.56-73.728h-13.635Zm59.916-6.335c2.561 3.441 3.842 8.471 3.842 15.085 0 6.14-1.059 10.592-3.18 13.358-2.122 2.764-4.943 4.145-8.471 4.145-2.444 0-4.7-.574-6.768-1.728-2.067-1.154-4.038-2.698-5.901-4.632v-29.41c1.252-.61 2.712-1.093 4.374-1.45a23.574 23.574 0 0 1 4.938-.532c4.885 0 8.605 1.721 11.167 5.163m-33.047 28.062c0 4.071-.138 8.546-.406 13.433h11.803c.439-2.273.744-4.597.916-6.972 4.884 5.326 10.48 7.99 16.79 7.99 3.662 0 7.057-.926 10.175-2.774 3.123-1.848 5.643-4.765 7.56-8.75 1.916-3.987 2.875-9.052 2.875-15.189 0-6.412-1.097-11.89-3.286-16.436-2.185-4.544-5.248-7.986-9.182-10.328-3.934-2.34-8.48-3.513-13.636-3.513-3.733 0-7.412.63-11.041 1.884V41.073l-12.568-1.069zm90.803-28.061c2.562 3.441 3.842 8.471 3.842 15.085 0 6.14-1.059 10.592-3.18 13.358-2.123 2.764-4.944 4.145-8.472 4.145-2.444 0-4.7-.574-6.768-1.728-2.067-1.154-4.038-2.698-5.9-4.632v-29.41c1.25-.61 2.711-1.093 4.373-1.45a23.567 23.567 0 0 1 4.938-.532c4.885 0 8.605 1.721 11.167 5.163m-33.047 28.062c0 4.071-.138 8.546-.406 13.433h11.802c.44-2.273.745-4.597.917-6.972 4.884 5.326 10.48 7.99 16.792 7.99 3.662 0 7.055-.926 10.173-2.774 3.123-1.848 5.642-4.765 7.56-8.75 1.916-3.987 2.874-9.052 2.874-15.189 0-6.412-1.096-11.89-3.285-16.436-2.185-4.544-5.248-7.986-9.183-10.328-3.933-2.34-8.479-3.513-13.635-3.513-3.733 0-7.412.63-11.04 1.884V41.073l-12.569-1.069zm73.422-37.982c-5.429 3-9.6 7.3-12.519 12.896-2.917 5.599-4.373 12.213-4.373 19.845 0 8.277 1.678 15.308 5.036 21.092 3.36 5.782 7.93 10.124 13.714 13.024 5.78 2.9 12.267 4.35 19.461 4.35 4.241 0 8.284-.465 12.134-1.4 3.851-.932 7.437-2.211 10.765-3.84l-3.206-9.667c-6.685 3.187-13.063 4.782-19.13 4.782-5.124 0-9.61-1.093-13.46-3.281-3.852-2.187-6.844-5.402-8.983-9.643-2.134-4.24-3.206-9.36-3.206-15.366 0-5.257.825-9.922 2.47-13.992 1.645-4.07 4.24-7.295 7.784-9.668 3.545-2.375 8.015-3.562 13.406-3.562 2.444 0 4.888.203 7.328.612 2.444.406 4.733 1 6.868 1.78V89.31H490.49v9.769h29.255V68.04a65.479 65.479 0 0 0-13.255-4.53c-4.629-1.05-9.233-1.574-13.816-1.574-7.395 0-13.802 1.5-19.23 4.503m84.055 6.691c2.612 1.252 4.751 2.813 6.412 4.68v10.176c-3.428.372-6.224.56-8.395.56-5.19 0-8.777-.84-10.761-2.519-1.984-1.679-2.976-3.944-2.976-6.792 0-2.714.72-4.725 2.16-6.03 1.444-1.306 3.403-1.96 5.876-1.96 2.511 0 5.073.628 7.684 1.884m7.529-10.177c-.439 2.137-.727 4.562-.862 7.277-1.934-2.309-4.453-4.268-7.559-5.876-3.1-1.612-6.603-2.417-10.504-2.417-3.156 0-6.031.62-8.626 1.855-2.595 1.24-4.654 3.104-6.182 5.598-1.527 2.493-2.289 5.537-2.289 9.133 0 5.325 1.917 9.573 5.751 12.746 3.833 3.173 10.224 4.758 19.18 4.758 3.362 0 6.684-.238 9.974-.713v1.07c0 4.85-1.034 8.267-3.105 10.251-2.068 1.983-5.036 2.977-8.903 2.977-2.678 0-5.545-.39-8.6-1.17-3.051-.782-5.734-1.713-8.04-2.799l-1.984 9.16c2.24 1.016 5.19 1.95 8.856 2.798 3.662.846 7.529 1.271 11.601 1.271 4.746 0 8.785-.72 12.109-2.163 3.323-1.442 5.918-3.918 7.784-7.427 1.867-3.51 2.801-8.237 2.801-14.172V73.281c0-2.272.133-5.716.405-10.329zm22.396 13.18v64.874l12.514 1.017V78.368c0-2.339.398-3.992 1.197-4.959.795-.966 2.06-1.45 3.792-1.45.778 0 1.884.187 3.307.559l1.477-9.007c-1.19-.475-2.641-.856-4.353-1.145a29.424 29.424 0 0 0-4.86-.43c-8.717 0-13.074 4.731-13.074 14.196m31.293 0v64.874l12.515 1.017V78.368c0-2.339.397-3.992 1.196-4.959.796-.966 2.06-1.45 3.792-1.45.778 0 1.884.187 3.307.559l1.477-9.007c-1.188-.475-2.641-.856-4.352-1.145a29.445 29.445 0 0 0-4.86-.43c-8.718 0-13.075 4.731-13.075 14.196m62.127 20.656c-.234 4.376-1.34 7.66-3.307 9.846-1.966 2.188-4.595 3.281-7.884 3.281-3.19 0-5.843-1.1-7.965-3.307-2.118-2.205-3.503-5.478-4.148-9.82Zm12.263-7.987h-35.923c.578-11.499 6.056-17.25 16.435-17.25 2.579 0 5.215.313 7.915.941a47.1 47.1 0 0 1 7.759 2.52l2.746-8.6c-6.14-2.985-13.041-4.477-20.71-4.477-5.833 0-10.751 1.101-14.756 3.306-4 2.206-7.01 5.376-9.032 9.516-2.017 4.136-3.025 9.124-3.025 14.96 0 6.071 1.066 11.294 3.205 15.67 2.139 4.378 5.115 7.717 8.932 10.023 3.812 2.31 8.215 3.461 13.2 3.461 5.19 0 9.526-1.213 13.004-3.639 3.473-2.425 6.05-5.656 7.734-9.693 1.679-4.036 2.516-8.496 2.516-13.38zm10.127 15.264c0 3.02-.138 7.614-.406 13.79h11.753c.205-1.527.397-3.351.586-5.47.183-2.122.313-3.842.38-5.165 1.457 2.408 2.892 4.435 4.298 6.079a17.585 17.585 0 0 0 4.94 4.02c1.88 1.036 4.025 1.553 6.431 1.553 1.934 0 3.596-.203 4.99-.611l-1.578-10.888c-1.222.373-2.579.559-4.073.559-2.95 0-5.528-.756-7.734-2.264-2.205-1.51-4.562-3.996-7.068-7.455v-35.26h-12.519zm40.51-63.578c-1.834.322-3.34.687-4.529 1.095l2.29 9.157c.844-.236 1.917-.464 3.206-.687a21.92 21.92 0 0 1 3.662-.33c5.561 0 9.734 3.58 12.517 10.738l.813 2.034-20.249 55.36h13.481l10.178-30.937c1.662-5.292 2.73-9.346 3.206-12.16a156.54 156.54 0 0 0 3.357 11.907l10.33 31.19h12.668L774.476 62.24c-1.9-5.259-3.95-9.498-6.157-12.72-2.205-3.223-4.808-5.615-7.809-7.175-3.005-1.56-6.625-2.34-10.866-2.34-2.104 0-4.067.16-5.9.482" fill="#fff"></path><path d="M172.35 208.706h-70.972c-33.433 0-45.662-12.229-45.662-45.66V92.071c0-33.43 12.229-45.66 45.66-45.66h70.952c33.433 0 45.684 12.23 45.684 45.66v70.973c0 33.432-12.23 45.661-45.662 45.661" fill="#c8102e" fillRule="evenodd"></path><path d="M126.521 114.582h6.509l-3.265 7.593Zm-1.602-3.825-1.931-4.418h-4.395l9.347 21.206h3.799l9.31-21.206h-4.514l-1.905 4.418Zm70.732-4.404h4.248v21.191h-4.248Zm-16.909 9.105h7.83v3.863h-7.83v4.343h11.367v3.868h-15.614V106.34h16.024v3.865h-11.777Zm-16.88-2.504-4.817 14.592h-3.514l-4.817-14.592-4.688 14.582h-4.582l7.396-21.209h3.564l4.825 13.931 4.823-13.93h3.595l7.377 21.208h-4.463Zm-49.756 2.445c0-3.449-1.712-5.293-4.823-5.293-3.127 0-4.85 1.896-4.85 5.441v11.986h-4.306V115.4c0-5.967 3.317-9.39 9.098-9.39 5.838 0 9.185 3.487 9.185 9.567v11.97h-4.304zm-24.251 12.146h4.304v-21.219h-4.304v8.617h-9.721v-8.617h-4.306v21.22h4.306v-8.56h9.721zm49.008 27.016c-14.896 0-27.015 12.12-27.015 27.015h3.817c0-12.79 10.407-23.198 23.198-23.198 12.792 0 23.198 10.407 23.198 23.198h3.817c0-14.896-12.119-27.015-27.015-27.015m152.031 14.582c1.758 1.18 3.072 2.804 3.942 4.872.871 2.067 1.306 4.432 1.306 7.093 0 2.612-.385 4.94-1.155 6.981-.77 2.043-2 3.671-3.69 4.885-1.691 1.213-3.867 1.82-6.53 1.82-2.544 0-4.704-.615-6.478-1.845-1.775-1.23-3.105-2.88-3.993-4.948-.887-2.067-1.331-4.348-1.331-6.842 0-2.629.419-4.98 1.256-7.057.837-2.076 2.117-3.716 3.842-4.92 1.724-1.207 3.859-1.81 6.403-1.81 2.528 0 4.67.59 6.429 1.771m-16.272-4.458c-2.662 1.524-4.696 3.663-6.103 6.416-1.406 2.754-2.11 5.956-2.11 9.605 0 3.834.75 7.187 2.248 10.058 1.498 2.871 3.657 5.09 6.478 6.654 2.821 1.566 6.15 2.35 9.982 2.35 3.668 0 6.823-.759 9.468-2.274 2.645-1.515 4.663-3.645 6.052-6.39 1.39-2.747 2.085-5.927 2.085-9.544 0-3.9-.758-7.29-2.273-10.17-1.515-2.879-3.675-5.098-6.48-6.654-2.804-1.557-6.098-2.336-9.88-2.336-3.65 0-6.805.762-9.467 2.285m40.831 29.331h-11.275l.552 5.248h28.3l-.577-5.248h-10.722v-31.113h-6.278Zm51.378-31.113h-7.082l-10.823 16.021h-4.294v-16.021h-6.278v36.361h6.278v-15.016h3.29l7.534 10.898c1.104 1.624 2.213 2.8 3.327 3.528 1.113.729 2.515 1.093 4.206 1.093 1.406 0 2.662-.235 3.767-.703l-1.306-4.897c-.686.284-1.34.426-1.959.426-.737 0-1.368-.184-1.896-.552-.527-.368-1.076-.962-1.645-1.783l-6.654-9.542zm20.541 20.127c1.339 1.213 2.009 2.925 2.009 5.135 0 2.243-.682 3.859-2.047 4.846-1.364.988-3.369 1.482-6.014 1.482h-3.415v-12.907c1.574-.251 2.779-.377 3.616-.377 2.561 0 4.512.607 5.851 1.82m-15.745 16.235h9.794c4.603 0 8.128-.937 10.572-2.812 2.444-1.875 3.666-4.587 3.666-8.136 0-2.411-.548-4.516-1.645-6.316-1.096-1.8-2.624-3.18-4.582-4.143-1.959-.963-4.211-1.444-6.756-1.444-1.389 0-2.98.167-4.771.502v-14.012h-6.278zm52.383-30.121c1.758 1.18 3.072 2.804 3.942 4.872.871 2.067 1.307 4.432 1.307 7.093 0 2.612-.386 4.94-1.156 6.981-.77 2.043-2 3.671-3.69 4.885-1.692 1.213-3.868 1.82-6.53 1.82-2.545 0-4.705-.615-6.479-1.845-1.775-1.23-3.105-2.88-3.993-4.948-.887-2.067-1.33-4.348-1.33-6.842 0-2.629.418-4.98 1.255-7.057.837-2.076 2.117-3.716 3.842-4.92 1.724-1.207 3.86-1.81 6.403-1.81 2.528 0 4.671.59 6.43 1.771m-16.273-4.458c-2.662 1.524-4.696 3.663-6.103 6.416-1.406 2.754-2.109 5.956-2.109 9.605 0 3.834.75 7.187 2.248 10.058 1.498 2.871 3.657 5.09 6.478 6.654 2.821 1.566 6.15 2.35 9.982 2.35 3.667 0 6.822-.759 9.467-2.274 2.645-1.515 4.663-3.645 6.053-6.39 1.388-2.747 2.084-5.927 2.084-9.544 0-3.9-.758-7.29-2.273-10.17-1.515-2.879-3.675-5.098-6.479-6.654-2.804-1.557-6.098-2.336-9.88-2.336-3.65 0-6.807.762-9.468 2.285m45.904 37.743c-1.322.703-2.331 1.607-3.025 2.712a9.055 9.055 0 0 0-1.32 3.566h4.52c.486-2.678 2.06-4.018 4.722-4.018 2.662 0 4.244 1.34 4.747 4.018h4.544a9.084 9.084 0 0 0-1.318-3.566c-.695-1.105-1.708-2.009-3.04-2.712-1.33-.703-2.975-1.055-4.933-1.055-1.942 0-3.574.352-4.897 1.055m14.163-39.525v19.988c0 2.512.092 5.391.276 8.64l-18.255-28.628h-6.982v36.361h5.826v-20.767c0-2.26-.075-4.73-.226-7.408l17.98 28.175h7.207v-36.36zm22.424 31.113h-11.275l.553 5.248h28.3l-.577-5.248H494.51v-31.113h-6.279Zm22.902 5.248h21.42l-.602-5.173h-14.54v-10.019h13.71v-4.847h-13.71v-11.099h15.319l-.528-5.223h-21.07zm61.386-30.146c1.28 1.046 1.92 2.524 1.92 4.432 0 2.026-.706 3.566-2.121 4.62-1.414 1.055-3.452 1.583-6.114 1.583h-4.22v-12.204h4.722c2.594 0 4.533.523 5.813 1.569m-10.534 15.28h3.917c1.305 0 2.457.26 3.453.779s1.762 1.218 2.298 2.097c.535.879.804 1.845.804 2.9 0 1.49-.541 2.603-1.621 3.34-1.08.737-2.64 1.105-4.683 1.105h-4.168zm14.527-3.528a8.733 8.733 0 0 0 3.064-3.14c.745-1.296 1.117-2.815 1.117-4.556 0-2.026-.507-3.813-1.52-5.362-1.012-1.548-2.494-2.754-4.444-3.616-1.95-.862-4.29-1.293-7.02-1.293h-11.851v36.36h11.349c3.85 0 6.739-.744 8.665-2.233 1.924-1.49 2.887-3.533 2.887-6.128 0-2.16-.615-3.963-1.845-5.411-1.231-1.448-2.842-2.465-4.834-3.051 1.657-.251 3.134-.775 4.432-1.57" fill="#fff"></path></g></svg>
