<svg width="120" height="40" fill="none" xmlns="http://www.w3.org/2000/svg">
  <g clip-path="url(#inline-svg-17-1)">
    <path d="M110.135 0H9.535c-.367 0-.73 0-1.095.002-.306.002-.61.008-.919.013C6.85.023 6.18.082 5.517.19a6.665 6.665 0 00-1.9.627A6.438 6.438 0 00.193 5.521a12.993 12.993 0 00-.179 2.002c-.01.307-.01.615-.015.921V31.56c.005.31.006.61.015.921.008.671.068 1.34.18 2.002.11.663.32 1.306.624 1.905a6.2 6.2 0 001.179 1.614 6.282 6.282 0 001.618 1.179 6.7 6.7 0 001.901.63c.663.11 1.333.168 2.004.177.31.007.613.011.919.011.366.002.728.002 1.095.002h100.6c.359 0 .724 0 1.084-.002.304 0 .617-.004.922-.01.67-.01 1.338-.068 2-.178a6.805 6.805 0 001.908-.63A6.293 6.293 0 00117.666 38a6.405 6.405 0 001.182-1.614c.302-.6.51-1.242.619-1.905.111-.661.173-1.33.185-2.002.004-.31.004-.61.004-.921.008-.364.008-.725.008-1.094V9.536c0-.366 0-.73-.008-1.092 0-.306 0-.614-.004-.92a13.57 13.57 0 00-.185-2.003 6.648 6.648 0 00-.619-1.903 6.469 6.469 0 00-2.799-2.8 6.77 6.77 0 00-1.908-.627c-.661-.11-1.33-.169-2-.176-.305-.005-.618-.011-.922-.013-.36-.002-.725-.002-1.084-.002z" fill="#A6A6A6"></path>
    <path d="M8.445 39.125c-.305 0-.602-.004-.904-.01a12.696 12.696 0 01-1.87-.164 5.884 5.884 0 01-1.656-.548 5.406 5.406 0 01-1.397-1.016 5.321 5.321 0 01-1.02-1.397 5.722 5.722 0 01-.544-1.657 12.413 12.413 0 01-.166-1.875c-.007-.21-.015-.913-.015-.913v-23.1s.009-.692.015-.895a12.37 12.37 0 01.165-1.872 5.755 5.755 0 01.544-1.662c.26-.518.603-.99 1.015-1.398A5.565 5.565 0 015.668 1.05c.62-.1 1.247-.155 1.875-.163l.902-.012h102.769l.913.013a12.37 12.37 0 011.858.162 5.933 5.933 0 011.671.548 5.589 5.589 0 012.415 2.42c.261.52.441 1.076.536 1.649.103.624.161 1.255.173 1.887.003.283.003.588.003.89.008.375.008.732.008 1.092v20.929c0 .363 0 .718-.008 1.075 0 .325 0 .623-.004.93a12.53 12.53 0 01-.171 1.853 5.716 5.716 0 01-.54 1.67 5.47 5.47 0 01-1.015 1.386 5.414 5.414 0 01-1.4 1.022 5.855 5.855 0 01-1.668.55c-.618.101-1.243.156-1.869.163-.293.007-.599.011-.897.011l-1.084.002-101.69-.002z" fill="#000"></path>
    <path d="M24.769 20.3a4.947 4.947 0 012.356-4.151 5.065 5.065 0 00-3.99-2.158c-1.68-.176-3.308 1.005-4.164 1.005-.872 0-2.19-.988-3.608-.958a5.315 5.315 0 00-4.473 2.727c-1.934 3.349-.492 8.27 1.361 10.977.927 1.325 2.01 2.805 3.428 2.753 1.387-.058 1.905-.885 3.58-.885 1.658 0 2.144.885 3.59.852 1.489-.025 2.426-1.332 3.32-2.67a10.963 10.963 0 001.52-3.092 4.782 4.782 0 01-2.92-4.4zm-2.732-8.09a4.873 4.873 0 001.115-3.49 4.958 4.958 0 00-3.208 1.66 4.636 4.636 0 00-1.144 3.36 4.098 4.098 0 003.237-1.53zm20.265 14.93H37.57l-1.137 3.356h-2.005l4.484-12.418h2.083l4.483 12.418h-2.039l-1.136-3.356zm-4.243-1.55h3.752l-1.85-5.446h-.051l-1.85 5.447zm17.101.38c0 2.813-1.506 4.62-3.779 4.62a3.07 3.07 0 01-2.848-1.583h-.043v4.484h-1.86V21.442h1.8v1.506h.033a3.212 3.212 0 012.883-1.6c2.298 0 3.813 1.816 3.813 4.622zm-1.91 0c0-1.833-.948-3.038-2.393-3.038-1.42 0-2.375 1.23-2.375 3.038 0 1.824.955 3.046 2.375 3.046 1.445 0 2.392-1.197 2.392-3.046zm11.874 0c0 2.813-1.505 4.62-3.778 4.62a3.069 3.069 0 01-2.848-1.583h-.043v4.484h-1.859V21.442h1.799v1.506h.034a3.21 3.21 0 012.883-1.6c2.298 0 3.813 1.816 3.813 4.622zm-1.91 0c0-1.833-.947-3.038-2.392-3.038-1.42 0-2.375 1.23-2.375 3.038 0 1.824.955 3.046 2.375 3.046 1.445 0 2.392-1.197 2.392-3.046zm8.496 1.066c.138 1.232 1.335 2.04 2.97 2.04 1.566 0 2.693-.808 2.693-1.919 0-.964-.68-1.54-2.29-1.936l-1.609-.388c-2.28-.55-3.339-1.617-3.339-3.348 0-2.142 1.867-3.614 4.519-3.614 2.624 0 4.423 1.472 4.483 3.614h-1.876c-.112-1.239-1.136-1.987-2.634-1.987-1.497 0-2.521.757-2.521 1.858 0 .878.654 1.395 2.255 1.79l1.368.336c2.548.603 3.606 1.626 3.606 3.443 0 2.323-1.85 3.778-4.793 3.778-2.754 0-4.614-1.42-4.734-3.667h1.902zM83.346 19.3v2.142h1.722v1.472h-1.722v4.991c0 .776.345 1.137 1.102 1.137.204-.004.408-.018.611-.043v1.463c-.34.064-.686.092-1.032.086-1.833 0-2.548-.689-2.548-2.444v-5.19h-1.316v-1.472h1.316V19.3h1.867zm2.719 6.67c0-2.849 1.678-4.639 4.294-4.639 2.625 0 4.295 1.79 4.295 4.639 0 2.856-1.661 4.638-4.295 4.638-2.633 0-4.294-1.782-4.294-4.638zm6.695 0c0-1.954-.895-3.108-2.401-3.108-1.506 0-2.4 1.162-2.4 3.108 0 1.962.894 3.106 2.4 3.106 1.506 0 2.401-1.144 2.401-3.106zm3.426-4.528h1.772v1.541h.043a2.16 2.16 0 012.178-1.635c.214-.001.428.022.637.069v1.738a2.591 2.591 0 00-.835-.112 1.872 1.872 0 00-1.937 2.083v5.37h-1.858v-9.054zm13.198 6.395c-.25 1.643-1.85 2.771-3.898 2.771-2.634 0-4.269-1.764-4.269-4.595 0-2.84 1.644-4.682 4.191-4.682 2.505 0 4.08 1.72 4.08 4.466v.637h-6.395v.112a2.353 2.353 0 00.639 1.832 2.364 2.364 0 001.797.732 2.045 2.045 0 002.091-1.273h1.764zm-6.282-2.702h4.526a2.167 2.167 0 00-.608-1.634 2.168 2.168 0 00-1.612-.664 2.293 2.293 0 00-2.306 2.298zM36.738 11.253h.798a1.001 1.001 0 001.125-.95c0-.551-.414-.907-1.116-.907a1.063 1.063 0 00-1.204.935h-.876a1.872 1.872 0 012.108-1.745c1.175 0 2.002.658 2.002 1.604a1.386 1.386 0 01-1.084 1.365v.07a1.39 1.39 0 011.327 1.443 1.995 1.995 0 01-2.228 1.774 1.984 1.984 0 01-2.241-1.765h.89c.053.57.577.939 1.35.939.774 0 1.28-.414 1.28-.997 0-.591-.476-.956-1.307-.956h-.824v-.81zm4.092 2.171c0-.81.604-1.277 1.674-1.344l1.22-.07v-.389c0-.476-.314-.744-.922-.744-.496 0-.84.182-.939.5h-.86c.09-.773.82-1.27 1.84-1.27 1.13 0 1.766.563 1.766 1.514v3.077h-.856v-.633h-.07a1.515 1.515 0 01-1.353.707 1.36 1.36 0 01-1.5-1.348zm2.894-.384v-.377l-1.1.07c-.62.042-.901.253-.901.65 0 .405.351.64.835.64a1.06 1.06 0 001.166-.983zm3.244-2.097v3.755h-.889v-4.503h2.965v.748h-2.076zm7.462 1.501c0 1.431-.724 2.328-1.86 2.328a1.467 1.467 0 01-1.386-.756h-.07v2.179h-.89v-6h.856v.744h.067a1.564 1.564 0 011.414-.819c1.145 0 1.869.893 1.869 2.324zm-.914 0c0-.95-.45-1.526-1.203-1.526-.748 0-1.216.587-1.216 1.53 0 .939.468 1.526 1.212 1.526.756 0 1.207-.575 1.207-1.53zm2.097 3.866v-.765c.096.013.193.018.29.017a.77.77 0 00.815-.628l.066-.22-1.63-4.52h.968l1.129 3.577h.07l1.125-3.576h.943l-1.679 4.689c-.385 1.095-.81 1.447-1.729 1.447a3.94 3.94 0 01-.368-.02zm4.468-2.89h.885c.087.397.459.604.98.604.591 0 .954-.26.954-.666 0-.434-.326-.641-.955-.641h-.673v-.69h.662c.537 0 .81-.207.81-.584 0-.33-.264-.583-.81-.583-.497 0-.86.211-.918.567h-.857a1.578 1.578 0 011.775-1.32c1.07 0 1.682.485 1.682 1.246a.925.925 0 01-.71.921v.07a1.01 1.01 0 01.88 1.014c0 .856-.728 1.422-1.84 1.422-.984 0-1.783-.45-1.865-1.36zm4.985 1.278v-4.503h.88v3.097h.071l2.075-3.097h.881v4.503h-.88v-3.114h-.067l-2.08 3.114h-.88zm8.76-3.755h-1.418v3.755h-.89v-3.755H70.1v-.748h3.726v.748zm4.787 2.539a1.83 1.83 0 01-1.952 1.303 2.045 2.045 0 01-2.08-2.325 2.077 2.077 0 012.076-2.352c1.253 0 2.01.856 2.01 2.27v.31h-3.18v.05a1.188 1.188 0 001.2 1.29 1.079 1.079 0 001.07-.546h.856zm-3.126-1.451h2.273a1.086 1.086 0 00-1.107-1.167 1.15 1.15 0 00-1.166 1.167zm6.893-1.836h2.03c.882 0 1.398.446 1.398 1.145a.967.967 0 01-.76.951v.07a1.028 1.028 0 01.962 1.038c0 .786-.59 1.299-1.579 1.299h-2.05v-4.503zm.881.682v1.166h.881c.537 0 .794-.207.794-.587 0-.351-.224-.58-.695-.58l-.98.001zm0 1.82v1.319h1.054c.525 0 .807-.232.807-.658 0-.45-.319-.662-.918-.662h-.943z" fill="#fff"></path>
  </g>
  <defs>
    <clipPath id="inline-svg-17-1">
      <path fill="#fff" d="M0 0h119.664v40H0z"></path>
    </clipPath>
  </defs>
</svg>
